<?xml version="1.0" encoding="UTF-8" standalone="no"?>
<svg
   xmlns:dc="http://purl.org/dc/elements/1.1/"
   xmlns:cc="http://creativecommons.org/ns#"
   xmlns:rdf="http://www.w3.org/1999/02/22-rdf-syntax-ns#"
   xmlns:svg="http://www.w3.org/2000/svg"
   xmlns="http://www.w3.org/2000/svg"
   xmlns:sodipodi="http://sodipodi.sourceforge.net/DTD/sodipodi-0.dtd"
   xmlns:inkscape="http://www.inkscape.org/namespaces/inkscape"
   width="1280"
   height="720"
   viewBox="0 0 338.66668 190.5"
   version="1.1"
   id="svg8"
   inkscape:version="1.0.1 (3bc2e813f5, 2020-09-07)"
   sodipodi:docname="oblicq-logo.svg">
  <defs
     id="defs2" />
  <sodipodi:namedview
     id="base"
     pagecolor="#ffffff"
     bordercolor="#666666"
     borderopacity="1.0"
     inkscape:pageopacity="0.0"
     inkscape:pageshadow="2"
     inkscape:zoom="0.5"
     inkscape:cx="869.13557"
     inkscape:cy="631.06563"
     inkscape:document-units="px"
     inkscape:current-layer="layer1"
     inkscape:document-rotation="0"
     showgrid="false"
     units="px"
     inkscape:window-width="1680"
     inkscape:window-height="1025"
     inkscape:window-x="1366"
     inkscape:window-y="0"
     inkscape:window-maximized="1" />
  <metadata
     id="metadata5">
    <rdf:RDF>
      <cc:Work
         rdf:about="">
        <dc:format>image/svg+xml</dc:format>
        <dc:type
           rdf:resource="http://purl.org/dc/dcmitype/StillImage" />
        <dc:title></dc:title>
      </cc:Work>
    </rdf:RDF>
  </metadata>
  <g
     inkscape:label="Layer 1"
     inkscape:groupmode="layer"
     id="layer1">
    <path
       style="fill:#030303;stroke:none;stroke-width:0.0846667"
       d="m 79.354476,48.401525 c -1.888152,0.247881 -3.781383,0.25093 -5.672667,0.592656 -4.74201,0.856809 -9.320995,3.139397 -12.130913,7.160742 -3.470654,4.96697 -3.701753,11.361928 -3.701753,17.187334 v 12.615332 23.029341 c 0,8.6117 -0.776847,19.28266 6.604,25.37883 1.254006,1.03547 2.663444,1.83727 4.148666,2.48835 2.208107,0.96859 4.565311,1.4749 6.942667,1.80171 3.04165,0.4191 6.184815,0.42587 9.228666,0.0254 6.953081,-0.9144 12.923185,-4.76927 15.458018,-11.49096 2.29743,-6.09194 1.89865,-12.91243 1.89865,-19.304 V 79.184258 c 0,-6.813381 0.68791,-14.460814 -2.227497,-20.828002 -2.945892,-6.433837 -9.395121,-9.190695 -16.060504,-9.83571 -1.444244,-0.139764 -3.040041,-0.309025 -4.487333,-0.119021 m 25.230664,-0.03594 v 90.593345 h 20.32 v -2.20134 c 1.07975,0.60114 2.11446,1.24545 3.302,1.62984 4.16238,1.34958 9.29344,0.55118 12.35379,-2.7305 0.9928,-1.06426 1.74819,-2.32156 2.35195,-3.64067 2.35628,-5.14511 1.88892,-11.17261 1.88892,-16.67933 V 87.904929 c 0,-5.34019 0.56218,-11.613731 -2.19033,-16.425338 -2.69772,-4.715257 -8.91141,-5.94013 -13.81166,-4.535849 -1.43993,0.412666 -2.56964,1.284395 -3.89467,1.911182 V 48.365589 h -20.32 m 42.67199,0 v 90.593341 h 20.066 V 71.902924 54.630923 50.143589 l -0.0872,-1.642246 -1.26746,-0.135754 h -3.64066 -15.07067 m 22.52133,0 v 18.118667 h 19.89667 V 48.365589 h -19.89668 m 66.71733,50.88467 h -19.38866 v 13.038671 c 0,2.43729 0.16425,4.943 -0.0991,7.366 -0.10753,0.99 -0.40556,2.16577 -1.17856,2.85081 -1.09389,0.96977 -3.11658,0.39217 -3.67792,-0.90348 -0.61891,-1.42824 -0.46313,-3.30276 -0.46313,-4.826 v -8.72067 -30.818666 c 0,-3.247305 -0.23029,-6.59638 0.15579,-9.821334 0.14986,-1.24841 0.49953,-2.950718 1.79155,-3.510873 2.34187,-1.0149 3.24527,2.402163 3.38666,4.018873 0.49445,5.651501 0.0847,11.510858 0.0847,17.187339 h 19.38866 V 71.733591 c 0,-5.372779 -0.0618,-10.626684 -3.05223,-15.324668 -2.54423,-3.996208 -6.92997,-6.234456 -11.42577,-7.251744 -9.08557,-2.055765 -20.91605,-0.781957 -26.32709,7.759744 -4.16052,6.569117 -3.56024,14.495188 -3.56024,21.928668 0,12.640478 -0.14986,25.291199 0,37.930669 0.0652,5.46887 1.04987,11.87518 4.8404,16.08667 5.92751,6.58622 16.94772,7.22206 25.04693,5.19599 2.921,-0.72983 5.89958,-2.03031 8.128,-4.10295 6.0723,-5.64667 6.35,-13.42915 6.35,-21.15904 V 99.250259 m 24.04534,39.708671 c 0.14901,1.88637 0.62822,3.8735 1.20142,5.67266 0.28109,0.87969 0.66717,1.70434 1.20565,2.45534 3.85233,5.37548 11.07271,4.83023 16.89693,4.57538 1.09643,-0.0483 2.20472,-0.003 3.302,-0.003 v -17.78 h -6.35 c 1.2319,-1.42283 2.77537,-2.44509 3.69908,-4.14867 3.5433,-6.53271 2.65092,-14.84647 2.65092,-22.01333 V 78.676258 c 0,-6.72863 0.71543,-14.440579 -2.39353,-20.658669 -4.67868,-9.356617 -17.13992,-10.588024 -26.30847,-8.754508 -2.7195,0.54378 -5.36787,1.449858 -7.70467,2.971377 -9.29725,6.054403 -7.78933,19.049553 -7.78933,28.643133 v 31.072669 c 0,6.45575 -0.12785,13.84596 3.56277,19.47333 3.75412,5.72347 11.56885,7.53449 18.02723,7.53534 M 79.777809,63.629889 c 1.532043,-0.180848 2.516124,0.815594 2.696125,2.261701 0.340106,2.732025 0.182542,5.545583 0.182542,8.297334 v 35.898666 c 0,3.24595 0.229023,6.59266 -0.09898,9.82134 -0.119972,1.18101 -0.627972,2.85699 -2.017691,3.03233 -1.822365,0.22987 -2.880021,-1.03048 -3.216995,-2.69367 -0.596476,-2.94377 -0.169672,-6.31613 -0.169672,-9.31333 V 74.781591 c 0,-2.674112 -0.227414,-5.476664 0.133435,-8.128001 0.213021,-1.56481 0.748369,-2.817961 2.491232,-3.023701 m 181.186655,0.600456 c 1.52146,-0.09389 2.34357,0.936329 2.51545,2.338578 0.33358,2.713568 0.10922,5.564379 0.10922,8.297335 v 35.644672 c 0,3.19523 0.0457,6.38386 -0.17103,9.56733 -0.094,1.36728 -0.7112,2.88349 -2.28431,2.95995 -1.62221,0.0788 -2.24028,-1.09407 -2.4765,-2.53662 -0.43264,-2.65074 -0.23283,-5.4483 -0.23283,-8.128 V 76.644258 c 0,-3.09135 -0.35137,-6.429926 0.16256,-9.482668 0.22437,-1.33113 0.82127,-2.835233 2.37744,-2.931245 m -91.186,7.079912 v 67.648673 h 19.89667 V 71.310257 h -19.89667 m -45.21199,10.438469 c 1.15316,-0.14986 1.90339,0.720003 2.18796,1.753533 0.49631,1.80255 0.26738,3.82101 0.26738,5.67267 v 25.654001 c 0,2.20082 0.27753,4.61543 -0.20532,6.77333 -0.21869,0.97731 -0.68783,2.08915 -1.82668,2.18542 -1.28347,0.10845 -2.10016,-0.90611 -2.45288,-2.01609 -0.64533,-2.03039 -0.34112,-4.4168 -0.34112,-6.51933 V 89.682929 c 0,-1.88341 -0.21734,-3.91652 0.24511,-5.75734 0.27398,-1.09059 0.94598,-2.023531 2.12555,-2.176863 z"
       id="path846" />
  </g>
</svg>
